<svg id="Layer_1" xmlns="http://www.w3.org/2000/svg" width="300" height="45" viewBox="-202.5 2059.4 768.6 115.4"><style>.st0{fill:#9bcb52}.st1{fill:#039cb5}</style><path class="st0" d="M333.5 2149.4h-6.4c-1.6 0-2.7-1.3-2.7-2.7v-7.1h-.4c-4.9 7.4-12.6 11.2-21.1 11.3-16.1.3-29.4-12.6-30.7-28.8-1.7-20.2 10.3-35.9 29.8-35.9 10.1 0 17.4 4.5 21.7 10.9h.3v-35c0-1.6 1.3-2.7 2.7-2.7h6.7c1.6 0 2.7 1.3 2.7 2.7v84.5c.3 1.5-.9 2.8-2.6 2.8zm-28.8-53c-12.3 0-19.8 9.4-19.8 21.7 0 12.3 7.3 21.9 19.8 21.9 12.3 0 19.8-9.6 19.8-21.9 0-12.3-7.5-21.7-19.8-21.7zM378.8 2150.9c-18.5 0-33-12.9-33-32.2 0-19.1 14.4-32.4 33-32.4 18.4 0 32.8 13.3 32.8 32.4 0 19.2-14.2 32.2-32.8 32.2zm0-54.5c-12.6 0-20.2 9.7-20.2 21.7 0 12.3 7.7 21.9 20.2 21.9 12.3 0 20.2-9.7 20.2-21.9s-7.6-21.7-20.2-21.7zM430.7 2149.4H424c-1.6 0-2.7-1.3-2.7-2.7v-84.6c0-1.6 1.3-2.7 2.7-2.7h6.7c1.6 0 2.7 1.3 2.7 2.7v84.5c.2 1.5-1.1 2.8-2.7 2.8zM456.5 2149.4h-6.7c-1.6 0-2.7-1.3-2.7-2.7v-84.6c0-1.6 1.3-2.7 2.7-2.7h6.7c1.6 0 2.7 1.3 2.7 2.7v84.5c.2 1.5-1.2 2.8-2.7 2.8zM519.2 2149.4h-6.5c-1.6 0-2.7-1.1-2.7-2.7l-.1-5c-2.4 2.6-8.5 9.4-19.8 9.4-11.4 0-21.5-7.1-21.5-19.1 0-12.2 9.9-18.3 24.2-18.8l16.6-.7v-2.4c0-9.4-6.4-14.1-15.4-14.1-6.7 0-12.8 2.3-16.1 3.9-1.5.7-3 .1-3.8-1.3l-1.5-3.2c-.6-1.5 0-3 1.3-3.5 4.8-2.3 12.2-4.9 20.9-4.9 10.3 0 16.3 2.9 20.4 7.1 4.2 4.3 6.7 9.6 6.7 20.2v33.2c.2.6-1.1 1.9-2.7 1.9zm-9.4-29.8l-14.5.9c-10.1.6-14.1 4.8-14.1 10.7s4.5 10.7 12.8 10.7c8.1 0 13.5-5.5 15.9-9v-13.4h-.1v.1zM558.3 2097.6c-5.5 0-8.8 3.5-10.2 5.3-1.1 1.7-3.8 6.5-3.8 15.8v28.1c0 1.6-1.3 2.7-2.7 2.7h-7c-1.6 0-2.7-1.3-2.7-2.7v-56.5c0-1.6 1.3-2.7 2.7-2.7h7c1.6 0 2.7 1.3 2.7 2.9l-.1 6.7h.3c3-7.1 8.6-10.7 15.2-10.7 1.6 0 3 .1 4.1.3 1.5.3 2.3 1.5 2.3 2.9l-.3 5.9c-.1 1.7-1.7 2.9-3.5 2.4-1-.3-2.4-.4-4-.4z"/><path class="st1" d="M54.9 2120.5H5.7c.6 14.4 8.7 24 22.5 24 9.4 0 15.9-3.5 19.1-5.9 1.3-.9 3.2-.6 4.1.7l.1.1c.9 1.1.6 2.9-.6 3.8-3.2 2.6-10.7 7.4-23.4 7.4-17.6 0-29-13.1-29-31.6 0-18.7 13.4-31.3 29.4-31.3s27.4 12 27.4 28.3c0 1.9-.4 4.5-.4 4.5zm-6.4-5.8c0-7.9-5.8-21.1-20.9-21.1-15 0-21.1 12.6-21.5 21.1h42.4zM111.2 2092.8l-23.1 54.8c-.3.9-1.5 1.7-2.6 1.7H84c-1.1 0-2.2-.7-2.6-1.7l-23-54.8c-.9-1.8.6-4.1 2.6-4.1h.9c1.1 0 2.2.7 2.6 1.7l20.2 49.1 20.2-49.1c.3-.9 1.5-1.7 2.6-1.7h.9c2.2 0 3.7 2.1 2.8 4.1zM170.3 2120.5H121c.6 14.4 8.7 24 22.5 24 9.4 0 15.9-3.5 19.1-5.9 1.3-.9 3.2-.6 4.1.7l.1.1c.9 1.1.6 2.9-.6 3.8-3.2 2.6-10.7 7.4-23.4 7.4-17.6 0-29-13.1-29-31.6 0-18.7 13.4-31.3 29.4-31.3s27.4 12 27.4 28.3c0 1.9-.3 4.5-.3 4.5zm-6.7-5.8c0-7.9-5.8-21.1-20.9-21.1-15 0-21.1 12.6-21.5 21.1h42.4zM208.1 2091.9c-.1 1.6-1.6 2.9-3.3 2.6-.9-.1-2.2-.3-3.5-.3-5.8 0-9.4 4.1-10.5 5.5-.9 1.5-4.3 6.5-4.3 17v29.8c0 1.6-1.3 2.9-2.9 2.9h-.9c-1.6 0-2.9-1.3-2.9-2.9v-54.8c0-1.6 1.3-2.9 2.9-2.9h.9c1.6 0 2.9 1.3 2.9 2.9v8.5c2.2-8.2 8.8-12.3 15.4-12.3 1.5 0 2.7.1 3.8.3 1.5.3 2.6 1.6 2.4 3.2v.5zM265.9 2088.7c2.3 0 3.9 2.3 3 4.5l-28.9 70.1c-4.2 10.1-9.4 11.3-13.7 11.3-1.6 0-3-.3-4.2-.6-1.7-.3-2.9-2.2-2.4-3.9.3-1.7 2.1-3 3.8-2.6.9.1 1.7.3 2.9.3 3.5 0 6.2-1.3 9-9.6l3.5-10.1-22.4-55.2c-.9-2.2.7-4.5 3-4.5 1.3 0 2.6.9 3 2.1l20 50.7 20-50.7c1-.9 2.1-1.8 3.4-1.8z"/><path class="st0" d="M-95 2059.9s-61.6-3.8-107.5 42.2l69.8 21s39.6-49.5 106-45.6l-68.3-17.6zm-23.9 22.9c-10.9 0-19.9-2.6-19.9-5.8s8.8-5.8 19.9-5.8c10.9 0 19.9 2.6 19.9 5.8 0 3.3-8.9 5.8-19.9 5.8z"/><path class="st0" d="M-28.5 2081.1c-58.3.3-102.6 54.5-102.6 54.5l-65.2-21.8 7.4 16.5 58.4 20.2s45.7-65.9 101.6-67.9l.4-1.5z"/><path class="st0" d="M-30.9 2086c-49.2 4.3-98.5 76.8-98.5 76.8l-53.7-20.3 6.2 13.8 47.5 18.5c36.1-55.9 71.9-83.2 97.8-87l.7-1.8z"/></svg>